<svg width="24" height="24" viewBox="0 0 24 24" fill="none" xmlns="http://www.w3.org/2000/svg">
<path d="M11.4441 22.8838C5.1371 22.8838 0.00219727 17.7489 0.00219727 11.4419C0.00219727 5.13491 5.1371 0 11.4441 0C17.7511 0 22.886 5.13491 22.886 11.4419C22.886 17.7489 17.7511 22.8838 11.4441 22.8838ZM11.4441 1.67443C6.05246 1.67443 1.67662 6.06142 1.67662 11.4419C1.67662 16.8224 6.05246 21.2094 11.4441 21.2094C16.8358 21.2094 21.2116 16.8224 21.2116 11.4419C21.2116 6.06142 16.8358 1.67443 11.4441 1.67443Z" fill="white"/>
<path d="M23.1656 24.0002C22.9535 24.0002 22.7414 23.922 22.5739 23.7546L20.3414 21.522C20.0176 21.1983 20.0176 20.6625 20.3414 20.3387C20.6651 20.015 21.2009 20.015 21.5246 20.3387L23.7572 22.5713C24.0809 22.895 24.0809 23.4308 23.7572 23.7546C23.5898 23.922 23.3777 24.0002 23.1656 24.0002Z" fill="white"/>
</svg>
