<svg width="105" height="107" viewBox="0 0 105 107" fill="none" xmlns="http://www.w3.org/2000/svg">
<path d="M0.552339 0.697762C0.505827 0.814041 0.482572 5.53497 0.505827 11.1629L0.575595 21.3954L52.3663 21.4652L104.18 21.5117V11.0466V0.581483L52.4128 0.534971C18.0407 0.48846 0.598851 0.534971 0.552339 0.697762ZM101.11 10.9768L101.157 18.4885H52.3198H3.48257V11.0931C3.48257 7.02334 3.55234 3.60474 3.64536 3.53497C3.71513 3.44195 25.6686 3.39544 52.4128 3.41869L101.041 3.48846L101.11 10.9768Z" fill="white"/>
<path d="M13.2733 5.60495C12.6687 6.04681 12.0873 7.25611 12.0873 8.11657C12.0873 9.30262 12.8082 10.5584 13.971 11.3956C15.157 12.2794 15.4594 12.8375 15.2501 13.7445C15.1338 14.1398 14.9477 14.3026 14.5524 14.3026C13.971 14.3026 13.7152 13.9073 13.7152 13.0003C13.7152 12.5119 13.5989 12.4422 12.9012 12.4422H12.0873V13.6282C12.0873 14.6282 12.2036 14.9073 12.7617 15.4887C13.2966 16.0236 13.6454 16.1631 14.4129 16.1631C15.6222 16.1631 16.1803 15.8608 16.6222 15.0003C17.0408 14.2096 17.0873 12.0003 16.6919 11.1631C16.5524 10.8375 15.8547 10.1631 15.1803 9.6282C14.064 8.79099 13.9245 8.60495 13.9943 7.95378C14.0408 7.39564 14.1803 7.18634 14.5989 7.13983C15.0175 7.07006 15.1338 7.18634 15.2501 7.76774C15.3896 8.39564 15.5059 8.48867 16.1803 8.48867C16.9012 8.48867 16.971 8.4189 16.971 7.79099C16.971 6.90727 16.4129 5.79099 15.8315 5.46541C15.157 5.11657 13.878 5.18634 13.2733 5.60495Z" fill="white"/>
<path d="M18.6686 5.79082C18.064 6.3257 18.0175 6.46524 18.0175 8.13966V9.93036L19.4826 11.2559C20.8314 12.4652 20.9477 12.6513 20.8779 13.3722C20.8082 14.0699 20.7152 14.1862 20.2268 14.1862C19.7384 14.1862 19.6221 14.0466 19.5291 13.3722C19.4128 12.628 19.3431 12.5583 18.5524 12.4885C17.6686 12.4187 17.6686 12.4187 17.6686 13.2559C17.6686 14.3955 18.25 15.5815 18.971 15.9071C20.4128 16.5583 21.8779 16.0234 22.4593 14.628C23.1803 12.9304 22.6919 11.0699 21.2733 9.97687C19.7384 8.79082 19.5058 8.48849 19.5756 7.83733C19.6221 7.34896 19.7617 7.20943 20.2268 7.20943C20.6919 7.20943 20.8314 7.34896 20.8779 7.83733C20.9477 8.41873 21.0407 8.48849 21.8779 8.48849C22.8779 8.48849 22.9245 8.39547 22.5524 7.04663C22.064 5.30245 20.0175 4.62803 18.6686 5.79082Z" fill="white"/>
<path d="M59.343 5.46541C58.7151 5.72123 58.1337 7.0003 58.1337 8.13983C58.1337 9.39564 58.6454 10.3724 59.8314 11.3491C61.1337 12.4189 61.4593 12.9305 61.25 13.7212C61.1337 14.2096 60.9709 14.3026 60.4826 14.2561C59.9709 14.1863 59.8779 14.0701 59.8082 13.3026C59.7384 12.4887 59.6919 12.4422 58.9477 12.4422C57.9709 12.4422 57.8314 12.6747 58.0175 13.884C58.25 15.2096 59.2268 16.1631 60.3198 16.1631C62.25 16.1631 63.1337 14.977 62.9709 12.6049C62.8779 11.2329 62.8547 11.2096 61.3198 9.79099C59.6919 8.27937 59.5058 7.86076 60.157 7.2096C60.5291 6.8375 60.5756 6.8375 60.9709 7.32588C61.2035 7.60495 61.3896 7.97704 61.3896 8.16309C61.3896 8.37239 61.6686 8.48867 62.2268 8.48867H63.0872L62.9477 7.48867C62.7151 5.72123 61.0407 4.79099 59.343 5.46541Z" fill="white"/>
<path d="M67.9244 5.60495C66.9942 6.27936 66.7383 7.30262 66.7383 10.5119C66.7383 12.1398 66.8546 13.884 66.9709 14.3491C67.2965 15.5119 68.1802 16.1631 69.4128 16.1631C70.6453 16.1631 71.529 15.5119 71.8546 14.3491C72.2035 13.0468 72.1569 7.69797 71.7616 6.76774C71.343 5.74448 70.5523 5.23285 69.4128 5.23285C68.9011 5.23285 68.2267 5.39564 67.9244 5.60495ZM70.0872 7.60495C70.1569 7.90727 70.2267 9.27936 70.2267 10.698C70.2267 13.698 70.1104 14.3026 69.5058 14.3026C68.8081 14.3026 68.5988 13.5352 68.5988 10.7677C68.5988 7.58169 68.7151 7.09332 69.4128 7.09332C69.7616 7.09332 69.9942 7.27936 70.0872 7.60495Z" fill="white"/>
<path d="M82.4825 5.69797C81.6221 6.37239 81.3198 8.18634 81.436 11.6282C81.5756 15.4189 81.9709 16.1631 83.8314 16.1631C84.3663 16.1631 84.7384 16.0003 84.9709 15.6515C85.2965 15.2096 85.343 15.2096 85.4825 15.5352C85.5523 15.7445 85.8779 15.9305 86.1802 15.9305C86.7384 15.9305 86.7384 15.9305 86.7384 13.1398V10.3491H85.4593H84.1802V11.1398C84.1802 11.6282 84.3198 11.977 84.5523 12.0701C84.8081 12.1631 84.8779 12.4654 84.8314 13.1863C84.7616 14.0701 84.6918 14.1863 84.157 14.2561C83.3663 14.3491 83.25 13.9538 83.25 10.7677C83.25 7.86076 83.4825 7.02355 84.25 7.13983C84.6686 7.18634 84.7849 7.37239 84.8314 8.07006C84.9011 8.93053 84.9244 8.95378 85.8314 8.95378C86.7151 8.95378 86.7384 8.93053 86.7384 8.16309C86.7384 6.95378 86.2732 5.95378 85.5523 5.58169C84.6221 5.09332 83.2035 5.13983 82.4825 5.69797Z" fill="white"/>
<path d="M88.8082 5.88402L88.0175 6.58169L87.9477 10.1631C87.9012 12.3491 87.971 14.0701 88.1338 14.5817C88.4361 15.6282 89.2966 16.1631 90.6687 16.1631C92.5989 16.1631 93.2733 14.698 93.2268 10.6049C93.2036 6.46541 92.7617 5.48867 90.7384 5.27937C89.7152 5.18634 89.5059 5.25611 88.8082 5.88402ZM91.1803 7.72123C91.3198 8.09332 91.3896 9.55843 91.3431 11.0933C91.2966 13.2096 91.1803 13.9073 90.9012 14.1863C90.5524 14.5352 90.5059 14.5352 90.1338 14.1863C89.8315 13.8608 89.7617 13.2794 89.7617 10.8142C89.7617 9.16309 89.8315 7.67471 89.9012 7.46541C90.1338 6.86076 90.9012 7.02355 91.1803 7.72123Z" fill="white"/>
<path d="M7.43608 5.74437C7.43608 5.90716 7.01748 8.27926 6.55236 10.9769L5.66864 15.9304H6.64538H7.64538L7.71515 14.9304C7.78492 13.9769 7.80817 13.9537 8.59887 13.9537C9.36631 13.9537 9.41283 14.0002 9.59887 14.9304C9.78492 15.9072 9.80817 15.9304 10.7152 15.9304C11.6221 15.9304 11.6454 15.9072 11.5291 15.2793C11.3896 14.5816 10.2965 8.34902 10.0872 7.09321C9.85469 5.48856 9.83143 5.4653 8.57562 5.4653C7.83143 5.4653 7.43608 5.55833 7.43608 5.74437ZM9.1105 10.8141C9.18027 12.0234 9.15701 12.0932 8.62213 12.163L8.06399 12.256L8.22678 10.2095C8.3198 9.06995 8.45934 8.0467 8.55236 7.90716C8.71515 7.62809 8.99422 9.00019 9.1105 10.8141Z" fill="white"/>
<path d="M23.7151 10.6979V15.9304H26.0407H28.3663V15.0002V14.0932L27.0407 14.0234L25.6919 13.9537L25.6221 12.7211L25.5524 11.5118H26.8314H28.1338V10.6048C28.1338 9.79089 28.064 9.69786 27.4128 9.55833C27.0175 9.48856 26.4361 9.41879 26.1105 9.41879C25.5989 9.41879 25.5524 9.34902 25.6221 8.41879L25.6919 7.44205L26.9245 7.37228L28.1338 7.30251V6.37228V5.4653H25.9245H23.7151V10.6979Z" fill="white"/>
<path d="M29.4128 10.6978V15.9303H30.3198H31.2267L31.1105 12.3257C31.0407 10.3257 31.0639 8.67454 31.1337 8.60477C31.2267 8.55826 31.5291 10.0001 31.8314 11.8141C32.5058 16.0466 32.4593 15.9303 33.2267 15.9303H33.8779L34.5058 12.2792C34.8546 10.2559 35.1802 8.55826 35.25 8.51174C35.2965 8.46523 35.343 10.0931 35.343 12.1629V15.9303H36.157H36.9709V10.6978V5.44198L35.6453 5.51174L34.2965 5.58151L33.8314 8.30244C33.5756 9.79081 33.2965 11.0931 33.2035 11.1862C33.0872 11.2792 33.0174 11.2792 33.0174 11.1629C33.0174 10.9536 32.343 6.72105 32.1802 5.97686C32.0872 5.51174 31.9477 5.46523 30.7384 5.46523H29.4128V10.6978Z" fill="white"/>
<path d="M38.1337 10.6979V15.9304H39.8779C42.5523 15.9304 43.2035 15.442 43.4128 13.2793C43.4826 12.3723 43.4128 11.8839 43.064 11.2095C42.6454 10.4188 42.6221 10.256 42.9244 9.69786C43.1105 9.34902 43.25 8.55833 43.25 7.95368C43.25 7.02344 43.1337 6.69786 42.5756 6.13972C41.9244 5.51182 41.7849 5.4653 40.0174 5.4653H38.1337V10.6979ZM41.343 8.20949C41.4361 9.09321 41.064 9.65135 40.4361 9.65135C40.064 9.65135 39.9942 9.4653 39.9942 8.4653C39.9942 7.32577 40.0174 7.30251 40.6454 7.37228C41.1802 7.41879 41.2965 7.55833 41.343 8.20949ZM41.4826 12.256C41.8081 13.163 41.343 14.07 40.5756 14.07C40.0174 14.07 39.9942 14.0002 39.9942 12.7676C39.9942 11.5118 39.9942 11.4886 40.6221 11.5583C41.0872 11.6048 41.3198 11.8141 41.4826 12.256Z" fill="white"/>
<path d="M44.4128 10.6979V15.9304H46.5058H48.5988V15.0234V14.0932L47.5058 14.0234L46.3895 13.9537L46.3198 9.69786L46.2732 5.4653H45.343H44.4128V10.6979Z" fill="white"/>
<path d="M49.5291 10.6979V15.9304H50.4593H51.3896V10.6979V5.4653H50.4593H49.5291V10.6979Z" fill="white"/>
<path d="M52.7849 10.6979V15.9304H54.9942H57.2035V15.0234V14.0932L55.9942 14.0234L54.7616 13.9537L54.6918 12.7211L54.6221 11.5118H55.8081H56.9942L56.9244 10.5351C56.8546 9.58158 56.8314 9.55833 56.0407 9.53507C54.5988 9.4653 54.6221 9.48856 54.6918 8.41879L54.7616 7.44205L55.9244 7.32577L57.0872 7.20949V6.32577V5.4653H54.9476H52.7849V10.6979Z" fill="white"/>
<path d="M73.2501 10.6979V15.9304H74.1803H75.1105V13.7211V11.5118H76.2733H77.4361V10.4653V9.41879H76.2501H75.0873L75.157 8.41879L75.2268 7.44205L76.4594 7.37228L77.6687 7.30251V6.37228V5.4653H75.4594H73.2501V10.6979Z" fill="white"/>
<path d="M94.1803 10.6979V15.9304H95.9245C99.0408 15.9304 99.4129 15.4653 99.3896 11.6514C99.3431 6.69786 99.3663 6.88391 98.6222 6.13972C97.971 5.51182 97.8315 5.4653 96.064 5.4653H94.1803V10.6979ZM97.4594 8.02344C97.7152 8.93042 97.6919 12.8141 97.4361 13.4653C97.2733 13.9072 97.0408 14.07 96.6222 14.07H96.0408V10.6746V7.30251L96.6687 7.37228C97.1105 7.41879 97.3431 7.60484 97.4594 8.02344Z" fill="white"/>
<path d="M0.598894 24.256C0.552383 24.349 0.412848 27.256 0.319825 30.6979C0.0174992 42.9304 1.06401 54.5584 3.27331 63.5584C5.71517 73.5118 9.41284 81.5816 15.0175 89.07C17.4594 92.3258 19.0175 94.0467 21.4361 96.0932C29.2035 102.698 39.3663 106.396 50.8314 106.791C58.5291 107.07 65.6221 105.489 72.7617 101.954C82.8082 96.977 90.5291 89.2328 95.3431 79.3025C101.273 67.0932 103.948 51.7909 103.948 29.9304V24.07H52.3431C23.9477 24.07 0.668662 24.163 0.598894 24.256ZM100.971 31.977C100.552 60.6049 95.7384 77.7677 84.8547 89.3723C78.1105 96.5584 69.9012 101.116 59.9942 103.21C56.6919 103.884 48.3663 103.954 44.7617 103.303C31.157 100.837 22.5524 95.3025 15.3198 84.349C8.87796 74.6281 5.29657 63.349 3.8082 48.2328C3.4361 44.4421 3.08727 28.7444 3.34308 27.6979L3.48261 27.0932L52.2733 27.1397L101.041 27.2095L100.971 31.977Z" fill="white"/>
<path d="M10.7384 41.2095L10.8082 50.4421L16.971 53.0932L23.157 55.7444L28.25 53.4886C31.064 52.256 33.8082 51.0467 34.3663 50.8142L35.3431 50.3723V41.4188C35.3431 36.4886 35.2733 32.4421 35.2035 32.4421C35.1337 32.4421 32.4593 33.5816 29.25 35.0002C26.0407 36.3955 23.2965 37.5583 23.1338 37.5583C22.971 37.5583 21.3431 36.8607 19.5058 36.0235C17.6686 35.1862 14.9245 33.9304 13.4128 33.256L10.6919 32.0002L10.7384 41.2095ZM17.2268 35.5118C20.3431 36.9304 23.0175 38.0932 23.1338 38.0932C23.2733 38.0932 25.9012 36.9769 29.0175 35.6281C32.1105 34.256 34.6919 33.1397 34.7617 33.1397C34.8314 33.1397 34.8779 36.9537 34.8779 41.5816V50.0467L29.0175 52.6514L23.157 55.256L17.157 52.6514L11.157 50.0467V41.4886C11.157 36.7676 11.25 32.9072 11.3431 32.9072C11.4593 32.9072 14.1105 34.07 17.2268 35.5118Z" fill="white"/>
<path d="M77.0174 32.9305C73.0872 34.9305 66.8546 40.3026 64.6686 43.5817C63.1569 45.8142 61.7151 49.07 61.25 51.2793C60.4825 55.0468 60.8081 61.2561 62.0872 66.7212C62.6918 69.3491 62.6686 69.5584 61.8779 70.3724C61.0174 71.2096 60.7848 71.2096 60.3662 70.3956C59.9709 69.6282 52.9011 48.5584 49.8779 39.1863C48.7616 35.6747 47.7616 32.7212 47.6918 32.6282C47.529 32.4654 41.3197 40.3956 41.2035 40.884C41.1569 41.07 41.3895 41.9073 41.6918 42.7445L42.2732 44.3026L40.343 49.8375C39.2732 52.8607 38.2267 55.8607 37.9709 56.5119L37.529 57.6747L35.8081 57.791L34.0872 57.9073L33.436 60.0003C33.0872 61.1398 32.7849 62.2328 32.7849 62.3724C32.7849 62.5584 33.0639 62.6747 33.4825 62.6747C34.2965 62.6747 35.2732 63.0933 35.436 63.4886C35.5523 63.8375 34.8779 66.6049 34.343 67.8607C33.2965 70.3259 31.9709 71.1631 29.2965 71.0003C27.1802 70.884 25.6453 70.1398 23.8779 68.4189C23.25 67.8142 22.7151 67.3259 22.6918 67.3724C22.6453 67.4189 21.9709 69.3724 21.1569 71.7212L19.6918 76.0235L20.8779 77.1166C24.9244 80.8375 32.3895 81.1166 35.0174 77.6514C35.436 77.1166 36.436 74.5119 37.9011 70.0468L40.1569 63.2561L44.1337 63.1863L48.0872 63.1398L50.6918 70.977C52.1337 75.3026 53.4593 79.0235 53.6686 79.2328C54.1104 79.7677 54.8546 79.7677 55.5755 79.2561C55.9011 79.0468 57.5058 77.7445 59.1569 76.3956C60.8081 75.0468 62.436 73.7212 62.8081 73.4189C63.9011 72.5352 64.3662 72.791 65.6453 74.884C66.7383 76.698 68.343 78.5584 69.5523 79.4189L70.1337 79.8607L75.4825 75.3026L80.8081 70.7677L80.8779 74.6282L80.9244 78.5119L79.5058 80.5817L78.0639 82.6747H52.529H26.9709L25.4593 82.0933C24.5756 81.7677 23.9942 81.6514 24.1104 81.8142C24.5988 82.6282 32.343 91.4654 32.6686 91.6049C33.3197 91.8375 76.25 91.7677 76.7151 91.5119C77.0872 91.3259 80.4593 86.698 87.3895 76.8375L89.2965 74.1398V64.7212V55.3026L86.8546 52.3491C85.5058 50.7212 84.2965 49.4654 84.1802 49.5352C84.0639 49.6049 82.7151 51.3259 81.1569 53.3724L78.343 57.0933L79.2732 58.2096C80.6918 59.884 80.9941 60.791 81.1104 63.884L81.2034 66.6049L80.5523 67.2096C80.1802 67.5584 78.9476 68.6282 77.8313 69.5584C75.3197 71.6747 74.9011 71.7445 73.25 70.2096C72.1337 69.1631 70.622 66.6049 69.8546 64.4886C68.8546 61.698 68.5523 59.977 68.436 56.1631C68.2965 51.7212 68.6686 49.3491 70.0174 45.9538C70.9709 43.5584 73.2965 39.977 74.4127 39.2328C75.5058 38.4886 76.0639 38.6049 79.8313 40.3026C83.4127 41.9305 83.8081 42.0468 84.3895 41.8607C84.6453 41.791 85.4592 40.7677 86.2267 39.5817C87.7383 37.2096 89.2965 34.6282 89.2965 34.5119C89.2965 34.4654 88.7848 34.3956 88.1569 34.3724C87.4825 34.3491 85.5988 33.8607 83.5755 33.1631C81.6918 32.5119 79.8546 31.977 79.5058 31.977C79.1569 31.977 78.0406 32.3956 77.0174 32.9305ZM45.436 54.3956C45.9244 55.9073 46.3662 57.3026 46.436 57.4654C46.529 57.7212 46.1104 57.791 44.3197 57.791C43.0872 57.791 42.0872 57.698 42.0872 57.6049C42.0872 57.4421 43.6686 52.6049 44.0639 51.5352C44.2732 50.977 44.529 51.5119 45.436 54.3956Z" fill="white"/>
<path d="M8.36633 41.9538V51.6747L11.4361 53.0933C13.1338 53.884 16.4594 55.3956 18.8082 56.4654L23.0873 58.4421L25.6687 57.2328C27.0873 56.5584 30.2733 55.0933 32.7152 53.9305L37.2035 51.8607V42.0235V32.1863L36.6919 32.2561L36.157 32.3259L36.0873 41.7445L36.0407 51.1863L29.6221 54.1863L23.2035 57.1863L22.2501 56.8142C21.7152 56.6049 18.6687 55.2328 15.4594 53.7677L9.6454 51.0933L9.57564 41.6514L9.52912 32.2096H8.94773H8.38959L8.36633 41.9538Z" fill="white"/>
</svg>
