<svg width="35" height="35" viewBox="0 0 35 35" fill="none" xmlns="http://www.w3.org/2000/svg">
<path d="M17.5 17.5C18.3021 17.5 18.989 17.2141 19.5606 16.6425C20.1323 16.0708 20.4176 15.3844 20.4167 14.5833C20.4167 13.7812 20.1308 13.0943 19.5592 12.5227C18.9875 11.951 18.3011 11.6657 17.5 11.6666C16.6979 11.6666 16.011 11.9525 15.4394 12.5241C14.8677 13.0958 14.5824 13.7822 14.5833 14.5833C14.5833 15.3854 14.8692 16.0723 15.4408 16.6439C16.0125 17.2156 16.6989 17.5009 17.5 17.5ZM17.5 32.0833C13.5868 28.7534 10.6643 25.6608 8.7325 22.8054C6.8007 19.95 5.83431 17.3065 5.83334 14.875C5.83334 11.2291 7.00632 8.32461 9.35229 6.16142C11.6983 3.99822 14.4142 2.91663 17.5 2.91663C20.5868 2.91663 23.3032 3.99822 25.6492 6.16142C27.9951 8.32461 29.1676 11.2291 29.1667 14.875C29.1667 17.3055 28.2003 19.949 26.2675 22.8054C24.3347 25.6618 21.4122 28.7544 17.5 32.0833Z" fill="#545454"/>
</svg>
