<svg width="35" height="35" viewBox="0 0 35 35" fill="none" xmlns="http://www.w3.org/2000/svg">
<path d="M17.5 17.5001C18.3021 17.5001 18.989 17.2142 19.5606 16.6426C20.1323 16.0709 20.4176 15.3845 20.4167 14.5834C20.4167 13.7813 20.1308 13.0945 19.5592 12.5228C18.9875 11.9511 18.3011 11.6658 17.5 11.6667C16.6979 11.6667 16.011 11.9526 15.4394 12.5242C14.8677 13.0959 14.5824 13.7823 14.5833 14.5834C14.5833 15.3855 14.8692 16.0724 15.4408 16.644C16.0125 17.2157 16.6989 17.5011 17.5 17.5001ZM17.5 32.0834C13.5868 28.7536 10.6643 25.6609 8.73249 22.8055C6.80069 19.9501 5.8343 17.3066 5.83333 14.8751C5.83333 11.2292 7.00631 8.32473 9.35229 6.16154C11.6983 3.99835 14.4142 2.91675 17.5 2.91675C20.5868 2.91675 23.3032 3.99835 25.6492 6.16154C27.9951 8.32473 29.1676 11.2292 29.1667 14.8751C29.1667 17.3056 28.2003 19.9491 26.2675 22.8055C24.3347 25.6619 21.4122 28.7545 17.5 32.0834Z" fill="#545454"/>
</svg>
