<svg width="20" height="20" viewBox="0 0 20 20" fill="none" xmlns="http://www.w3.org/2000/svg">
<path d="M10 12.9791C9.88889 12.9791 9.78473 12.9619 9.68751 12.9274C9.59028 12.893 9.50001 12.8338 9.41667 12.7499L6.41667 9.74992C6.26389 9.59714 6.18751 9.4027 6.18751 9.16659C6.18751 8.93048 6.26389 8.73603 6.41667 8.58325C6.56945 8.43048 6.76751 8.35075 7.01084 8.34409C7.25417 8.33742 7.45195 8.4102 7.60417 8.56242L9.16667 10.1249V4.16659C9.16667 3.93048 9.24667 3.73242 9.40667 3.57242C9.56667 3.41242 9.76445 3.3327 10 3.33325C10.2361 3.33325 10.4342 3.41325 10.5942 3.57325C10.7542 3.73325 10.8339 3.93103 10.8333 4.16659V10.1249L12.3958 8.56242C12.5486 8.40964 12.7467 8.33659 12.99 8.34325C13.2333 8.34992 13.4311 8.42992 13.5833 8.58325C13.7361 8.73603 13.8125 8.93048 13.8125 9.16659C13.8125 9.4027 13.7361 9.59714 13.5833 9.74992L10.5833 12.7499C10.5 12.8333 10.4097 12.8924 10.3125 12.9274C10.2153 12.9624 10.1111 12.9796 10 12.9791ZM5.00001 16.6666C4.54167 16.6666 4.14917 16.5033 3.82251 16.1766C3.49584 15.8499 3.33278 15.4577 3.33334 14.9999V13.3333C3.33334 13.0971 3.41334 12.8991 3.57334 12.7391C3.73334 12.5791 3.93112 12.4994 4.16667 12.4999C4.40278 12.4999 4.60084 12.5799 4.76084 12.7399C4.92084 12.8999 5.00056 13.0977 5.00001 13.3333V14.9999H15V13.3333C15 13.0971 15.08 12.8991 15.24 12.7391C15.4 12.5791 15.5978 12.4994 15.8333 12.4999C16.0695 12.4999 16.2675 12.5799 16.4275 12.7399C16.5875 12.8999 16.6672 13.0977 16.6667 13.3333V14.9999C16.6667 15.4583 16.5033 15.8508 16.1767 16.1774C15.85 16.5041 15.4578 16.6671 15 16.6666H5.00001Z" fill="white"/>
</svg>
