<svg width="29" height="27" viewBox="0 0 29 27" fill="none" xmlns="http://www.w3.org/2000/svg">
<path d="M24.4858 20.1256L20.5994 20.4572L18.5656 22.7968C19.444 22.8978 20.3528 22.9255 21.292 22.8798C22.2312 22.8341 23.238 22.7491 24.3123 22.6247L24.4858 20.1256ZM6.72412 4.68556L4.33903 5.12976C4.32076 6.26222 4.36005 7.29013 4.4569 8.2135C4.55375 9.13687 4.72425 10.0138 4.9684 10.8444L6.93658 8.58028L6.72412 4.68556ZM28.0966 16.3743L27.5987 25.2828C23.4094 26.4995 19.5804 26.8033 16.1119 26.1944C12.6433 25.5855 9.67519 24.2093 7.20741 22.0658C4.74051 19.9214 2.96918 17.1776 1.89342 13.8345C0.817668 10.4913 0.581141 6.65344 1.18384 2.32074L9.93637 0.58786L10.5258 9.05035L6.13024 14.1069C6.58891 15.0356 7.12123 15.918 7.7272 16.7539C8.33316 17.5898 9.03465 18.3542 9.83164 19.047C10.6286 19.7398 11.4832 20.3281 12.3953 20.8118C13.3075 21.2956 14.2553 21.6999 15.2388 22.0249L19.6344 16.9683L28.0966 16.3743Z" fill="white"/>
</svg>
