<svg width="28" height="27" viewBox="0 0 28 27" fill="none" xmlns="http://www.w3.org/2000/svg">
<path d="M24.1386 19.7608L20.2549 20.0925L18.2225 22.4321C19.1003 22.5331 20.0084 22.5608 20.947 22.5151C21.8856 22.4694 22.8916 22.3844 23.9652 22.26L24.1386 19.7608ZM6.38922 4.32081L4.0058 4.76501C3.98753 5.89747 4.0268 6.92538 4.12358 7.84875C4.22037 8.77212 4.39075 9.64909 4.63473 10.4797L6.60154 8.21553L6.38922 4.32081ZM27.7468 16.0095L27.2493 24.9181C23.0629 26.1347 19.2366 26.4386 15.7705 25.8297C12.3043 25.2207 9.33825 23.8445 6.87218 21.7011C4.40699 19.5566 2.63689 16.8129 1.56188 13.4697C0.486876 10.1266 0.250512 6.28869 0.852792 1.95599L9.59925 0.223113L10.1883 8.6856L5.79576 13.7422C6.25411 14.6709 6.78606 15.5532 7.39161 16.3891C7.99716 17.2251 8.69815 17.9894 9.4946 18.6823C10.291 19.3751 11.145 19.9634 12.0565 20.4471C12.968 20.9308 13.9152 21.3352 14.898 21.6601L19.2905 16.6036L27.7468 16.0095Z" fill="#545454"/>
</svg>
